<?xml version="1.0" encoding="utf-8"?>
<!-- Generator: Adobe Illustrator 28.0.0, SVG Export Plug-In . SVG Version: 6.00 Build 0)  -->
<svg version="1.1" id="Layer_1" xmlns="http://www.w3.org/2000/svg" xmlns:xlink="http://www.w3.org/1999/xlink" x="0px" y="0px"
	 viewBox="0 0 112.2 58.2" style="enable-background:new 0 0 112.2 58.2;" xml:space="preserve">
<style type="text/css">
	.st0{font-family:'Avenir-Roman';}
	.st1{font-size:12px;}
	.st2{fill:#D74F34;}
	.st3{fill:#E6E7E8;}
	.st4{fill:#BCBEC0;}
	.st5{fill:#939598;}
	.st6{fill:#6D6E71;}
</style>
<text transform="matrix(1 0 0 1 53.7203 10.248)"><tspan x="0" y="0" class="st0 st1">Bergmann</tspan><tspan x="0" y="14.4" class="st0 st1">Carbonate</tspan><tspan x="0" y="28.8" class="st0 st1">Research</tspan><tspan x="0" y="43.2" class="st0 st1">Laboratory</tspan></text>
<g>
	<path class="st2" d="M48,1.8C34,1.8,22.6,13.1,22.6,27.2S34,52.7,48,52.7"/>
	<polygon class="st3" points="48,29.6 38.5,29.6 29,29.6 19.5,29.6 10,29.6 10,28.2 10,26.7 10,25.2 10,23.7 14.6,23.7 19.5,23.7 
		29,23.7 38.5,23.7 48,23.7 48,25.2 48,26.7 48,28.2 	"/>
	<rect x="2.8" y="29.6" class="st4" width="45.2" height="9"/>
	<rect y="37.8" class="st5" width="48" height="9"/>
	<rect x="5.1" y="46.8" class="st6" width="42.9" height="6.7"/>
</g>
</svg>
